<?xml version="1.0" encoding="UTF-8"?><svg id="Gamboge" xmlns="http://www.w3.org/2000/svg" viewBox="0 0 1920 418"><defs><style>.cls-1{fill:#ff9700;}</style></defs><polygon class="cls-1" points="675.81 85.31 567.03 85.31 490.01 170.03 490.01 3.48 396.63 3.48 396.63 345.24 490.01 345.24 490.01 268.23 516 240.31 578.58 345.24 677.74 345.24 575.69 190.25 675.81 85.31"/><path class="cls-1" d="M935.12,282.67c-2.73-2.57-4.09-8.02-4.09-16.37v-76.05c0-37.22-10.43-64.98-31.29-83.27-20.86-18.29-52.47-27.44-94.83-27.44-36.58,0-65.95,7.14-88.09,21.42-22.14,14.28-35.79,37.15-40.92,68.59l92.42,2.89c1.6-10.27,5.37-18.05,11.31-23.34,5.93-5.3,14.36-7.94,25.27-7.94,10.27,0,18.29,3.54,24.07,10.59,5.78,7.06,8.66,17.33,8.66,30.81l-77.98,16.37c-28.24,6.1-49.99,15.33-65.22,27.68-15.25,12.36-22.86,30.08-22.86,53.19s8.82,39.95,26.47,52.47c17.64,12.52,40.11,18.77,67.39,18.77,18.61,0,34.42-2.33,47.41-6.98s23.5-11.31,31.53-19.98c5.03-5.44,9.18-11.51,12.44-18.21,1.65,8.02,4.4,14.66,8.25,19.89,6.74,9.14,15.08,15.33,25.03,18.53,9.94,3.2,19.57,4.81,28.88,4.81,6.09,0,12.35-.41,18.77-1.2,6.42-.8,11.07-1.69,13.96-2.65v-58.72h-5.3c-4.81,0-8.59-1.28-11.31-3.85ZM837.64,226.28c0,11.24-2.09,20.46-6.26,27.68-4.18,7.22-9.71,12.6-16.61,16.13-6.9,3.54-14.68,5.3-23.35,5.3s-14.44-1.84-18.29-5.54c-3.85-3.69-5.78-8.9-5.78-15.64s2.65-12.27,7.94-16.61c5.3-4.33,11.95-7.46,19.98-9.39l42.36-10.59v8.67Z"/><path class="cls-1" d="M1189.26,96.87c-16.05-11.55-35.62-17.33-58.72-17.33-19.26,0-35.94,4.98-50.06,14.92-10.5,7.4-18.87,17.2-25.11,29.39l-1.36-38.54h-90.98v332.13h93.38v-109.49c3.15,5.87,6.9,11.25,11.31,16.1,7.86,8.66,17.09,15.33,27.68,19.98s21.98,6.98,34.18,6.98c23.1,0,42.76-5.78,58.96-17.33,16.2-11.55,28.56-27.59,37.07-48.14,8.5-20.53,12.76-43.96,12.76-70.28s-4.17-50.14-12.51-70.52c-8.35-20.38-20.54-36.34-36.58-47.89ZM1131.02,257.89c-7.7,12.36-18.29,18.53-31.77,18.53-8.99,0-16.69-2.57-23.1-7.7-6.42-5.13-11.31-12.83-14.68-23.11-3.37-10.26-5.05-22.94-5.05-38.03s1.69-27.75,5.05-38.03c3.37-10.27,8.26-17.97,14.68-23.11,6.42-5.13,14.12-7.7,23.1-7.7,13.48,0,24.07,6.18,31.77,18.53,7.7,12.36,11.55,29.12,11.55,50.3s-3.85,37.95-11.55,50.3Z"/><path class="cls-1" d="M1410.97,226.83c0,18.62-2.89,32.01-8.66,40.19-5.78,8.18-14.28,12.27-25.51,12.27-9.63,0-16.69-3.77-21.18-11.31-4.5-7.54-6.74-19.65-6.74-36.34V85.31h-93.38v167.51c0,31.13,7.46,55.28,22.38,72.44,14.92,17.17,36.02,25.75,63.3,25.75s46.69-7.14,61.13-21.42c6.89-6.81,12.41-15.34,16.59-25.55l1.7,41.19h83.76V85.31h-93.38v141.52Z"/><path class="cls-1" d="M1908.69,123.58c-7.54-14.6-17.89-25.59-31.05-32.97-13.16-7.38-28.4-11.07-45.73-11.07-12.51,0-23.99,2.65-34.42,7.94-10.43,5.3-19.34,13.16-26.71,23.59-4.29,6.06-7.87,12.96-10.75,20.7-4.59-13.13-11.43-24.21-20.54-33.21-12.84-12.67-29.84-19.01-51.02-19.01-11.87,0-22.86,2.41-32.97,7.22-10.11,4.81-18.77,11.88-25.99,21.18-4.04,5.21-7.48,11.08-10.36,17.59l-1.91-40.21h-83.76v259.93h93.38v-131.9c0-11.55,1.12-21.42,3.37-29.6,2.24-8.18,5.54-14.36,9.87-18.53,4.33-4.17,9.87-6.26,16.61-6.26,10.91,0,18.45,4.5,22.62,13.48,4.17,8.99,6.26,22.62,6.26,40.92v131.9h81.83v-139.59c0-11.55,1.12-21.42,3.37-29.6,2.24-8.18,5.54-14.36,9.87-18.53,4.33-4.17,9.87-6.26,16.61-6.26,10.91,0,18.53,4.5,22.86,13.48,4.33,8.99,6.5,22.62,6.5,40.92v139.59h93.38v-167.03c0-21.82-3.78-40.03-11.31-54.64Z"/><polygon class="cls-1" points="261.38 52.21 251.35 149.48 330.91 157.62 347.21 .41 190 16.71 197.2 84.3 261.38 52.21"/><polygon class="cls-1" points="92.91 149.48 72.86 76.28 149.07 91.32 157.21 16.78 0 .47 16.3 157.69 92.91 149.48"/><polygon class="cls-1" points="51.8 286.86 91.91 198.62 16.37 190.47 .06 347.68 157.27 331.38 150.07 263.8 51.8 286.86"/><polygon class="cls-1" points="263.39 197.61 286.45 268.81 198.2 251.76 190.06 331.32 347.27 347.62 330.97 190.41 263.39 197.61"/></svg>